
    <svg width="512" height="512" viewBox="0 0 512 512" xmlns="http://www.w3.org/2000/svg">
      <!-- Background Circle (subtle, transparent) -->
      <circle cx="256" cy="256" r="240" fill="rgba(37, 99, 235, 0.05)" stroke="none"/>
      
      <!-- Main "J" Letter with gradient -->
      <defs>
        <linearGradient id="blueGradient" x1="0%" y1="0%" x2="100%" y2="100%">
          <stop offset="0%" style="stop-color:#3B82F6;stop-opacity:1" />
          <stop offset="100%" style="stop-color:#2563EB;stop-opacity:1" />
        </linearGradient>
        <linearGradient id="accentGradient" x1="0%" y1="0%" x2="100%" y2="100%">
          <stop offset="0%" style="stop-color:#F59E0B;stop-opacity:1" />
          <stop offset="100%" style="stop-color:#D97706;stop-opacity:1" />
        </linearGradient>
      </defs>
      
      <!-- Bold "J" shape -->
      <path d="M 320 120 L 320 300 Q 320 380 256 380 Q 192 380 192 300 L 192 280 L 240 280 L 240 300 Q 240 340 256 340 Q 272 340 272 300 L 272 120 Z" 
            fill="url(#blueGradient)" />
      
      <!-- HVAC element - stylized airflow lines -->
      <path d="M 140 180 Q 160 170 180 180" stroke="#3B82F6" stroke-width="8" fill="none" stroke-linecap="round" opacity="0.6"/>
      <path d="M 140 200 Q 160 190 180 200" stroke="#3B82F6" stroke-width="8" fill="none" stroke-linecap="round" opacity="0.5"/>
      <path d="M 140 220 Q 160 210 180 220" stroke="#3B82F6" stroke-width="8" fill="none" stroke-linecap="round" opacity="0.4"/>
      
      <path d="M 332 180 Q 352 170 372 180" stroke="#3B82F6" stroke-width="8" fill="none" stroke-linecap="round" opacity="0.6"/>
      <path d="M 332 200 Q 352 190 372 200" stroke="#3B82F6" stroke-width="8" fill="none" stroke-linecap="round" opacity="0.5"/>
      <path d="M 332 220 Q 352 210 372 220" stroke="#3B82F6" stroke-width="8" fill="none" stroke-linecap="round" opacity="0.4"/>
      
      <!-- Accent dot (represents excellence/premium) -->
      <circle cx="296" cy="120" r="20" fill="url(#accentGradient)"/>
      
      <!-- Subtle shadow for depth -->
      <ellipse cx="256" cy="450" rx="80" ry="20" fill="rgba(0,0,0,0.1)"/>
    </svg>
  